<?xml version="1.0" standalone="no"?>
<!DOCTYPE svg PUBLIC "-//W3C//DTD SVG 20010904//EN"
 "http://www.w3.org/TR/2001/REC-SVG-20010904/DTD/svg10.dtd">
<svg version="1.0" xmlns="http://www.w3.org/2000/svg"
 width="600.000000pt" height="285.000000pt" viewBox="0 0 600.000000 285.000000"
 preserveAspectRatio="xMidYMid meet">
<g transform="translate(0.000000,285.000000) scale(0.100000,-0.100000)"
fill="#000000" stroke="none">
<path d="M3024 2659 l-191 -190 495 -495 495 -496 -491 -491 -492 -492 190
-190 190 -190 682 682 683 682 -685 685 -685 685 -191 -190z m209 118 c-3 -6
-1 -7 6 -3 11 7 42 -23 68 -68 7 -12 12 -16 13 -9 0 7 11 1 24 -12 13 -13 23
-32 22 -42 -1 -13 5 -17 23 -15 13 2 21 -1 17 -6 -3 -5 6 -15 19 -22 18 -10
24 -19 20 -34 -3 -12 -2 -15 1 -8 9 19 27 14 20 -5 -4 -10 -4 -14 0 -10 11 11
63 -43 58 -58 -3 -7 -1 -16 5 -20 7 -3 8 0 5 9 -3 9 -1 16 5 16 6 0 11 -7 11
-17 0 -9 3 -13 6 -10 10 9 49 -45 46 -63 -2 -10 0 -11 5 -3 10 14 84 -50 79
-69 -1 -7 -1 -10 1 -5 10 17 24 5 19 -15 -3 -13 -3 -17 0 -10 8 18 65 -35 58
-53 -3 -7 -1 -16 5 -20 7 -3 8 0 5 9 -3 9 -1 16 5 16 6 0 11 -9 11 -20 0 -11
3 -19 8 -18 14 5 52 -29 49 -43 -2 -8 -2 -10 1 -6 2 4 10 3 18 -4 8 -6 11 -15
8 -20 -3 -5 -2 -8 3 -7 4 2 18 -4 31 -13 15 -11 20 -22 16 -35 -5 -16 -4 -16
5 -4 10 14 16 7 12 -13 -1 -5 2 -6 7 -3 10 6 62 -46 80 -79 6 -11 12 -14 12
-7 0 7 14 -3 30 -21 30 -34 39 -54 20 -42 -6 3 -7 -1 -3 -10 3 -10 8 -13 12
-6 5 7 18 3 39 -12 23 -16 30 -27 26 -42 -4 -14 -2 -16 4 -7 6 9 22 -2 60 -42
29 -30 52 -53 52 -51 0 2 11 -7 25 -21 14 -14 23 -30 19 -35 -3 -5 -1 -8 3 -7
5 2 26 -11 46 -29 25 -22 35 -38 31 -50 -4 -12 -3 -14 3 -6 7 10 26 -5 72 -52
50 -51 61 -69 56 -85 -4 -12 -9 -19 -12 -16 -3 3 -20 -10 -38 -29 -17 -19 -35
-31 -39 -27 -4 4 -6 2 -4 -4 1 -7 -14 -28 -34 -48 -21 -20 -38 -42 -38 -48 0
-5 -8 -7 -17 -4 -10 4 -14 4 -11 0 4 -3 -6 -20 -22 -36 -17 -16 -30 -34 -30
-39 0 -6 -3 -9 -7 -6 -11 5 -162 -150 -155 -158 4 -3 -2 -3 -13 1 -11 4 -17 4
-13 0 8 -10 -23 -47 -34 -40 -4 3 -8 -2 -8 -10 0 -8 -11 -23 -25 -34 -13 -11
-21 -22 -18 -26 3 -3 2 -6 -4 -6 -13 0 -123 -109 -123 -122 0 -6 -8 -7 -17 -4
-10 4 -15 4 -11 1 9 -9 -23 -45 -34 -39 -4 3 -8 -2 -8 -12 0 -14 -2 -15 -17
-3 -15 13 -15 12 -4 -9 7 -14 8 -22 1 -22 -5 0 -43 -34 -83 -75 -41 -41 -79
-75 -86 -75 -7 0 -9 -4 -6 -10 3 -5 1 -10 -5 -10 -6 0 -9 -4 -5 -9 3 -5 -4
-12 -14 -16 -11 -3 -23 -15 -26 -26 -4 -11 -9 -18 -12 -15 -7 7 -43 -33 -43
-48 0 -6 -5 -4 -10 4 -8 12 -10 12 -10 -5 l-1 -20 -15 20 c-16 20 -16 20 -9
-2 9 -31 -2 -48 -21 -32 -12 10 -13 9 -8 -5 4 -11 -1 -24 -15 -37 -11 -11 -21
-25 -21 -30 0 -6 -8 -8 -17 -5 -10 4 -15 4 -11 1 9 -9 -23 -45 -34 -39 -4 3
-8 0 -8 -7 0 -6 -20 -31 -44 -55 -24 -23 -41 -46 -38 -50 4 -4 2 -4 -5 0 -6 3
-14 2 -18 -4 -3 -5 -10 -10 -15 -10 -15 0 -40 31 -34 42 4 6 2 8 -4 4 -13 -8
-245 221 -237 234 3 5 0 8 -7 5 -7 -2 -23 8 -35 24 l-21 27 25 33 c15 19 31
30 40 27 8 -3 12 -2 9 3 -8 12 122 143 134 136 6 -4 7 1 3 12 -6 16 -5 16 10
4 15 -12 17 -12 11 2 -7 18 201 232 216 222 6 -4 7 1 3 12 -6 16 -5 16 10 4
15 -12 17 -12 11 2 -6 15 34 64 49 59 4 -1 6 1 5 5 -4 13 152 164 162 158 6
-4 7 2 3 12 -6 16 -5 16 10 4 15 -12 17 -12 11 2 -4 12 25 47 99 121 58 57
108 101 111 98 3 -3 6 0 6 7 0 8 6 11 16 7 14 -5 15 -4 4 9 -9 11 -9 15 -1 15
8 0 10 18 7 58 -5 69 -4 65 -16 57 -8 -5 -7 -11 1 -21 21 -25 4 -24 -23 1 -14
13 -29 21 -32 18 -3 -4 -6 -1 -6 5 0 15 -51 74 -58 67 -11 -10 -30 31 -27 58
3 27 -9 45 -19 28 -4 -5 -2 -12 4 -16 5 -3 10 -11 10 -17 0 -7 -13 0 -28 15
-16 15 -31 24 -35 20 -6 -6 -11 20 -8 40 1 5 -2 6 -7 3 -5 -3 -20 6 -34 19
-14 13 -29 21 -32 18 -3 -4 -6 1 -6 11 0 11 -4 15 -12 10 -8 -5 -7 0 2 11 8
10 10 16 4 12 -6 -4 -19 2 -29 13 -10 11 -24 20 -30 20 -17 0 -23 19 -20 53 3
28 -9 45 -19 28 -4 -5 -2 -12 4 -16 5 -3 10 -11 10 -17 0 -7 -13 0 -28 15 -16
15 -31 24 -35 20 -6 -6 -11 20 -8 40 1 5 -2 6 -7 3 -5 -3 -20 6 -34 19 -14 13
-29 21 -32 18 -6 -6 -10 21 -7 40 1 5 -3 6 -8 3 -5 -4 -19 6 -30 20 -12 15
-21 21 -21 13 0 -8 -5 -6 -14 6 -8 11 -12 33 -11 48 3 27 -9 45 -19 28 -4 -5
-2 -12 4 -16 5 -3 10 -11 10 -17 0 -7 -13 0 -28 15 -16 15 -31 24 -35 20 -6
-6 -11 20 -8 40 1 5 -2 6 -7 3 -5 -3 -20 6 -34 19 -14 13 -29 21 -32 18 -6 -6
-10 21 -7 40 1 5 -3 6 -7 3 -5 -3 -17 3 -27 14 -10 11 -24 20 -32 20 -7 0 -13
6 -13 13 0 17 -34 49 -43 42 -4 -3 -5 -2 -2 2 8 10 -16 33 -28 26 -6 -4 -8 0
-4 11 4 9 3 14 -2 11 -5 -3 -12 -1 -16 5 -3 5 0 10 7 10 7 0 19 9 26 20 7 11
19 20 27 20 8 0 14 3 12 8 -1 4 8 18 21 32 12 13 22 27 22 31 0 4 9 9 20 12
14 4 20 0 21 -11 0 -11 2 -13 6 -4 3 7 0 19 -6 26 -13 16 -4 27 16 19 11 -4
14 -2 11 8 -5 14 32 49 52 49 6 0 8 5 4 12 -5 8 -2 9 10 5 9 -4 15 -3 12 1 -8
13 23 52 40 52 8 0 13 3 13 8 -3 19 2 23 15 13 11 -9 16 -9 22 0 4 8 3 9 -4 5
-13 -8 -17 6 -5 17 9 10 34 -14 26 -26z"/>
<path d="M3280 2721 c0 -6 4 -13 10 -16 6 -3 7 1 4 9 -7 18 -14 21 -14 7z"/>
<path d="M2985 2580 c-3 -5 -1 -10 4 -10 6 0 11 5 11 10 0 6 -2 10 -4 10 -3 0
-8 -4 -11 -10z"/>
<path d="M3026 2543 c-6 -14 -5 -15 5 -6 7 7 10 15 7 18 -3 3 -9 -2 -12 -12z"/>
<path d="M2936 2441 c-4 -5 -2 -12 3 -15 5 -4 12 -2 15 3 4 5 2 12 -3 15 -5 4
-12 2 -15 -3z"/>
<path d="M3011 2354 c6 -7 16 -11 21 -8 11 7 3 17 -18 20 -12 2 -13 -1 -3 -12z"/>
<path d="M3096 2281 c-4 -5 -2 -12 3 -15 5 -4 12 -2 15 3 4 5 2 12 -3 15 -5 4
-12 2 -15 -3z"/>
<path d="M3256 2121 c-4 -5 -2 -12 3 -15 5 -4 12 -2 15 3 4 5 2 12 -3 15 -5 4
-12 2 -15 -3z"/>
<path d="M3336 2041 c-4 -5 -2 -12 3 -15 5 -4 12 -2 15 3 4 5 2 12 -3 15 -5 4
-12 2 -15 -3z"/>
<path d="M4000 2001 c0 -6 4 -13 10 -16 6 -3 7 1 4 9 -7 18 -14 21 -14 7z"/>
<path d="M3496 1881 c-4 -5 -2 -12 3 -15 5 -4 12 -2 15 3 4 5 2 12 -3 15 -5 4
-12 2 -15 -3z"/>
<path d="M3576 1801 c-4 -5 -2 -12 3 -15 5 -4 12 -2 15 3 4 5 2 12 -3 15 -5 4
-12 2 -15 -3z"/>
<path d="M4240 1761 c0 -6 4 -13 10 -16 6 -3 7 1 4 9 -7 18 -14 21 -14 7z"/>
<path d="M3736 1642 c-3 -5 1 -9 9 -9 8 0 12 4 9 9 -3 4 -7 8 -9 8 -2 0 -6 -4
-9 -8z"/>
<path d="M3645 1260 c-3 -6 1 -7 9 -4 18 7 21 14 7 14 -6 0 -13 -4 -16 -10z"/>
<path d="M3226 193 c-6 -14 -5 -15 5 -6 7 7 10 15 7 18 -3 3 -9 -2 -12 -12z"/>
<path d="M4435 2660 l-190 -190 490 -490 c272 -272 496 -488 503 -485 6 2 12
1 12 -3 0 -3 -223 -230 -496 -503 l-496 -496 188 -186 c104 -103 191 -187 194
-187 3 0 310 305 683 678 l677 677 -688 688 -687 687 -190 -190z m238 95 c10
-16 16 -21 13 -11 -6 16 -4 17 9 6 9 -7 13 -15 10 -18 -3 -3 4 -11 15 -19 11
-8 20 -21 20 -29 0 -8 5 -14 11 -14 5 0 7 6 3 13 -4 6 2 4 14 -7 12 -10 20
-22 17 -26 -2 -4 7 -13 20 -20 14 -7 25 -21 25 -31 0 -10 4 -21 10 -24 6 -3 7
1 4 9 -3 9 -2 16 4 16 5 0 13 -11 16 -25 4 -14 11 -25 16 -25 6 0 20 -15 31
-32 12 -18 18 -24 15 -14 -6 16 -4 17 9 6 9 -7 13 -15 10 -18 -3 -3 4 -11 15
-19 11 -8 20 -21 20 -29 0 -8 5 -14 11 -14 5 0 7 6 3 13 -4 6 2 4 14 -7 12
-10 19 -22 17 -26 -5 -8 24 -24 38 -22 4 1 7 -9 7 -22 0 -14 4 -28 10 -31 6
-3 7 1 4 9 -3 9 -2 16 4 16 5 0 13 -11 16 -25 4 -14 11 -25 16 -25 6 0 20 -15
31 -32 12 -18 18 -24 15 -14 -6 16 -4 17 9 6 9 -7 13 -15 10 -18 -3 -3 4 -11
15 -19 11 -8 20 -21 20 -29 0 -8 5 -14 11 -14 5 0 7 6 3 13 -4 6 2 4 14 -7 12
-10 20 -22 17 -26 -2 -4 7 -13 20 -20 14 -7 25 -21 25 -31 0 -10 4 -21 10 -24
6 -3 7 1 4 9 -3 9 -2 16 4 16 5 0 13 -11 16 -25 4 -14 11 -25 16 -25 6 0 20
-15 31 -32 12 -18 18 -24 15 -14 -6 16 -4 17 9 6 9 -7 13 -15 10 -18 -3 -3 4
-11 15 -19 11 -8 20 -21 20 -29 0 -8 5 -14 11 -14 5 0 7 6 3 13 -4 6 2 4 14
-7 12 -10 20 -22 17 -26 -2 -4 7 -13 20 -20 14 -7 25 -21 25 -31 0 -10 4 -21
10 -24 6 -3 7 1 4 9 -3 9 -2 16 4 16 5 0 13 -11 16 -25 4 -14 11 -25 16 -25 6
0 20 -15 31 -32 12 -18 18 -24 15 -14 -6 16 -4 17 9 6 9 -7 13 -15 10 -18 -3
-3 4 -11 15 -19 11 -8 20 -21 20 -29 0 -8 5 -14 11 -14 5 0 7 6 3 13 -4 6 2 4
14 -7 12 -10 19 -22 17 -26 -5 -8 24 -24 38 -22 4 1 7 -9 7 -22 0 -14 4 -28
10 -31 6 -3 7 1 4 9 -3 9 -2 16 4 16 5 0 13 -12 16 -26 4 -15 10 -23 14 -20 3
4 17 -10 30 -31 13 -21 21 -29 18 -19 -6 16 -4 17 9 6 9 -7 13 -15 10 -18 -3
-3 4 -11 15 -19 11 -8 20 -19 20 -25 0 -6 -7 -5 -17 3 -16 13 -17 12 -5 -3 8
-9 20 -14 28 -11 8 3 14 2 14 -1 0 -10 -148 -154 -153 -149 -3 2 -8 -4 -11
-15 -7 -22 -70 -74 -79 -66 -3 3 -4 -3 -4 -13 1 -10 -4 -17 -11 -15 -6 1 -11
-1 -10 -5 3 -9 -153 -168 -196 -200 -16 -12 -34 -20 -40 -16 -7 4 -7 1 1 -7 9
-10 -4 -27 -58 -81 -39 -39 -75 -66 -81 -63 -7 4 -8 2 -4 -5 8 -13 -62 -84
-75 -75 -4 2 -11 -1 -15 -7 -4 -8 -3 -9 4 -5 7 4 12 2 12 -3 0 -10 -14 -15
-33 -12 -4 0 -6 -3 -5 -7 2 -5 -12 -26 -30 -47 -27 -30 -36 -35 -44 -24 -8 12
-9 11 -5 -1 5 -16 -26 -63 -36 -54 -3 3 -8 -4 -12 -15 -8 -25 -84 -82 -99 -74
-6 3 -6 0 1 -7 10 -11 3 -22 -34 -57 -35 -32 -49 -40 -56 -30 -6 9 -8 8 -4 -3
5 -17 -27 -63 -37 -53 -3 4 -6 1 -6 -6 0 -19 -100 -112 -112 -105 -6 4 -8 3
-5 -3 3 -5 -14 -31 -38 -57 -38 -42 -46 -46 -65 -36 -11 6 -18 15 -15 21 4 5
11 6 17 3 7 -4 8 -2 4 4 -4 7 -2 12 5 12 7 0 9 3 6 6 -4 4 -13 1 -21 -6 -13
-10 -22 -6 -54 21 -53 45 -93 95 -85 103 4 4 -1 4 -12 0 -20 -7 -20 -7 -1 14
11 12 16 25 13 29 -4 3 -7 2 -7 -4 0 -5 -8 -10 -17 -10 -20 0 -65 36 -58 47 3
4 -1 7 -8 6 -6 0 -12 4 -12 9 0 6 4 9 8 7 5 -1 6 2 2 8 -3 5 -1 10 6 10 7 0 9
3 6 6 -4 4 -13 1 -21 -5 -20 -17 -68 16 -62 42 2 9 0 15 -5 11 -15 -9 -10 9
10 35 13 17 24 22 36 17 15 -5 16 -4 5 9 -11 13 -7 19 12 17 3 -1 12 6 20 15
9 12 9 15 1 9 -20 -11 -15 -1 9 20 12 10 18 13 14 6 -4 -6 -2 -12 3 -12 6 0
11 5 11 11 0 8 5 7 15 -1 13 -11 18 -11 28 0 9 10 9 11 -1 6 -7 -4 -15 -1 -18
8 -3 9 -11 13 -17 9 -6 -3 -7 -1 -3 5 4 7 13 12 21 12 8 0 17 5 21 12 5 7 3 8
-6 3 -9 -5 -11 -4 -6 3 4 7 14 12 22 12 8 0 12 5 9 10 -3 6 1 10 10 10 10 0
13 -5 9 -13 -4 -7 -3 -9 2 -4 5 5 10 12 10 15 6 28 18 51 24 47 4 -3 10 5 13
16 4 16 11 20 27 16 17 -4 19 -3 9 9 -11 14 -10 15 10 18 6 0 16 7 23 15 10
10 10 12 1 7 -20 -11 -15 -1 9 20 12 10 18 13 14 7 -4 -7 -2 -13 3 -13 6 0 11
5 11 11 0 8 5 7 15 -1 13 -11 18 -11 28 0 9 10 9 11 -1 6 -7 -4 -15 -1 -18 8
-3 9 -11 13 -17 9 -6 -3 -7 -1 -3 5 4 7 13 12 21 12 8 0 17 5 21 12 5 7 3 8
-6 3 -9 -5 -11 -4 -6 3 4 7 14 12 22 12 8 0 12 4 9 10 -3 5 1 10 10 10 10 0
13 -5 9 -12 -4 -8 -3 -10 2 -5 5 5 10 12 10 15 6 28 18 51 24 47 4 -3 10 5 13
16 4 16 11 20 27 16 17 -4 19 -3 9 9 -11 14 -10 15 10 18 6 0 16 7 23 15 10
10 10 12 1 7 -20 -11 -15 -1 9 20 12 10 18 13 14 7 -4 -7 -2 -13 3 -13 6 0 11
5 11 11 0 8 5 7 15 -1 13 -11 18 -11 28 0 9 10 9 11 -1 6 -7 -4 -15 -1 -18 8
-3 9 -11 13 -17 9 -6 -3 -7 -1 -3 5 4 7 13 12 21 12 8 0 17 5 21 12 5 7 3 8
-6 3 -9 -5 -11 -4 -6 3 4 7 14 12 22 12 8 0 12 5 9 10 -3 6 1 10 10 10 10 0
13 -5 9 -12 -4 -8 -3 -10 2 -5 5 5 10 12 10 15 6 28 18 51 24 47 4 -3 10 5 13
16 4 16 11 20 27 16 17 -4 19 -3 9 9 -11 14 -10 15 11 18 5 0 15 7 22 15 10
10 10 12 1 7 -20 -11 -15 -1 9 20 12 10 18 13 14 7 -4 -7 -2 -13 3 -13 6 0 11
5 11 11 0 8 5 7 15 -1 13 -11 18 -11 28 0 9 10 9 11 -1 6 -7 -4 -15 -1 -18 8
-3 9 -11 13 -17 9 -6 -3 -7 -1 -3 5 4 7 13 12 21 12 8 0 17 5 21 12 5 7 2 9
-7 4 -8 -4 -5 0 6 8 11 9 25 14 33 11 7 -3 10 0 7 6 -4 6 1 9 11 7 16 -2 18 3
16 27 -3 35 -22 76 -32 70 -7 -5 -61 47 -63 62 -1 4 -6 7 -10 5 -5 -1 -6 2 -2
7 3 6 -5 15 -17 22 -13 7 -39 27 -58 46 -19 18 -39 33 -44 33 -5 0 -1 7 10 15
19 14 19 14 -1 9 -15 -4 -25 2 -34 20 -8 14 -17 23 -21 21 -7 -5 -61 47 -63
62 -1 4 -6 7 -10 5 -5 -1 -6 2 -2 7 3 6 -5 15 -17 22 -13 7 -39 27 -58 46 -19
18 -39 33 -44 33 -5 0 -1 7 10 15 19 14 19 14 -1 9 -15 -4 -25 2 -34 20 -8 14
-17 23 -21 21 -8 -5 -62 49 -62 62 0 4 -4 7 -10 5 -5 -1 -7 2 -3 7 3 6 -5 15
-17 22 -13 7 -39 27 -58 46 -19 18 -39 33 -44 33 -5 0 -1 7 10 15 19 14 19 14
-1 9 -15 -4 -25 2 -34 20 -8 14 -17 23 -21 21 -7 -5 -61 47 -63 62 -1 4 -6 7
-10 5 -5 -1 -6 2 -2 7 3 6 -5 15 -17 22 -13 7 -39 27 -58 46 -19 18 -39 33
-44 33 -5 0 -1 7 10 15 19 14 19 14 -2 9 -12 -3 -26 1 -33 10 -11 13 -7 21 28
55 22 21 43 36 46 33 3 -3 5 0 5 6 0 7 5 12 11 12 5 0 7 -5 3 -12 -5 -7 -3 -8
5 -4 7 5 10 14 7 22 -6 14 39 66 48 56 3 -3 6 2 6 11 0 10 5 17 11 17 6 0 8
-7 5 -16 -3 -9 -2 -12 5 -9 6 4 8 12 6 19 -5 14 28 58 36 49 4 -3 11 6 16 21
6 14 14 26 18 26 5 0 24 15 43 34 39 37 48 35 83 -19z m585 -1320 c-3 -3 -9 2
-12 12 -6 14 -5 15 5 6 7 -7 10 -15 7 -18z"/>
<path d="M4610 2780 c-12 -7 -10 -9 7 -7 12 0 19 5 17 9 -6 10 -6 10 -24 -2z"/>
<path d="M4546 2713 c-6 -14 -5 -15 5 -6 7 7 10 15 7 18 -3 3 -9 -2 -12 -12z"/>
<path d="M4296 2472 c-3 -5 1 -9 9 -9 8 0 12 4 9 9 -3 4 -7 8 -9 8 -2 0 -6 -4
-9 -8z"/>
<path d="M4340 2421 c0 -5 7 -15 17 -22 15 -13 15 -12 4 9 -12 23 -21 28 -21
13z"/>
<path d="M4480 2274 c0 -1 6 -7 14 -13 10 -9 15 -8 19 2 3 8 -3 13 -14 13 -11
0 -19 -1 -19 -2z"/>
<path d="M4580 2181 c0 -5 7 -15 17 -22 15 -13 15 -12 4 9 -12 23 -21 28 -21
13z"/>
<path d="M4720 2034 c0 -1 6 -7 14 -13 10 -9 15 -8 19 2 3 8 -3 13 -14 13 -11
0 -19 -1 -19 -2z"/>
<path d="M4820 1941 c0 -5 7 -15 17 -22 15 -13 15 -12 4 9 -12 23 -21 28 -21
13z"/>
<path d="M4960 1794 c0 -1 6 -7 14 -13 10 -9 15 -8 19 2 3 8 -3 13 -14 13 -11
0 -19 -1 -19 -2z"/>
<path d="M5060 1701 c0 -5 7 -15 17 -22 15 -13 15 -12 4 9 -12 23 -21 28 -21
13z"/>
<path d="M5200 1554 c0 -1 6 -7 14 -13 10 -9 15 -8 19 2 3 8 -3 13 -14 13 -11
0 -19 -1 -19 -2z"/>
<path d="M5930 1460 c-9 -6 -10 -10 -3 -10 6 0 15 5 18 10 8 12 4 12 -15 0z"/>
<path d="M5840 1380 c0 -5 5 -10 11 -10 5 0 7 5 4 10 -3 6 -8 10 -11 10 -2 0
-4 -4 -4 -10z"/>
<path d="M5765 1309 c-4 -6 -5 -12 -2 -15 2 -3 7 2 10 11 7 17 1 20 -8 4z"/>
<path d="M5600 1140 c0 -5 5 -10 11 -10 5 0 7 5 4 10 -3 6 -8 10 -11 10 -2 0
-4 -4 -4 -10z"/>
<path d="M5520 1060 c0 -5 5 -10 11 -10 5 0 7 5 4 10 -3 6 -8 10 -11 10 -2 0
-4 -4 -4 -10z"/>
<path d="M5360 900 c0 -5 5 -10 11 -10 5 0 7 5 4 10 -3 6 -8 10 -11 10 -2 0
-4 -4 -4 -10z"/>
<path d="M5045 589 c-4 -6 -5 -12 -2 -15 2 -3 7 2 10 11 7 17 1 20 -8 4z"/>
<path d="M4533 265 c0 -8 4 -12 9 -9 5 3 6 10 3 15 -9 13 -12 11 -12 -6z"/>
<path d="M4637 176 c-4 -10 -1 -13 8 -9 8 3 12 9 9 14 -7 12 -11 11 -17 -5z"/>
<path d="M195 2616 c-99 -101 -180 -188 -180 -195 0 -6 220 -232 490 -501
l490 -490 -493 -493 -492 -492 190 -190 190 -190 683 683 682 682 -685 685
c-377 377 -687 685 -690 685 -3 -1 -86 -83 -185 -184z m209 104 c3 0 3 8 0 18
-4 9 3 4 15 -13 11 -16 21 -27 21 -23 0 4 11 -4 25 -18 14 -14 23 -30 19 -35
-3 -5 -2 -9 3 -8 14 3 43 -13 38 -21 -2 -4 7 -13 20 -20 19 -10 24 -19 19 -34
-4 -17 -3 -18 5 -6 10 14 15 7 12 -13 -1 -5 3 -6 7 -3 16 10 62 -41 56 -61 -4
-14 -4 -15 4 -4 8 11 12 10 21 -5 6 -11 11 -16 11 -12 0 4 11 -4 25 -18 14
-14 23 -30 19 -35 -3 -5 -2 -9 3 -8 14 3 43 -13 38 -21 -2 -4 7 -13 20 -20 19
-10 24 -19 19 -34 -4 -17 -3 -18 5 -6 10 14 15 7 12 -13 -1 -5 3 -6 7 -3 16
10 62 -41 56 -61 -4 -14 -4 -15 4 -4 8 11 12 10 21 -5 6 -11 11 -16 11 -12 0
4 11 -4 25 -18 14 -14 23 -30 19 -35 -3 -5 -2 -9 3 -8 14 3 43 -13 38 -21 -2
-4 7 -13 20 -20 19 -10 24 -19 19 -34 -4 -17 -3 -18 5 -6 10 14 15 7 12 -13
-1 -5 3 -6 7 -3 16 10 62 -41 56 -61 -4 -14 -4 -15 4 -4 8 11 12 10 21 -5 6
-11 11 -16 11 -12 0 4 11 -4 25 -18 14 -14 23 -30 19 -35 -3 -5 -2 -9 3 -8 14
3 43 -13 38 -21 -2 -4 7 -13 20 -20 19 -10 24 -19 19 -34 -4 -17 -3 -18 5 -6
10 14 15 7 12 -13 -1 -5 3 -6 7 -3 16 10 62 -41 56 -61 -4 -14 -4 -15 4 -4 8
11 12 10 21 -5 6 -11 11 -16 11 -12 0 4 11 -4 25 -18 14 -14 23 -30 19 -35 -3
-5 -2 -9 3 -8 14 3 43 -13 38 -21 -2 -4 7 -13 20 -20 19 -10 24 -19 19 -34 -4
-17 -3 -18 5 -6 10 14 15 7 12 -13 -1 -5 3 -6 7 -3 16 10 62 -41 56 -61 -4
-14 -4 -15 4 -4 8 11 12 10 21 -5 6 -11 11 -16 11 -12 0 3 15 -8 33 -24 34
-32 38 -63 11 -84 -7 -6 -11 -14 -7 -18 4 -4 0 -4 -8 -1 -9 3 -23 -3 -35 -16
-12 -14 -14 -20 -4 -15 8 5 3 -3 -12 -16 -16 -14 -28 -30 -28 -37 0 -6 -5 -11
-11 -11 -5 0 -7 5 -4 10 10 16 -1 11 -16 -7 -10 -11 -10 -14 -1 -9 6 4 12 2
12 -3 0 -6 -7 -11 -15 -11 -8 0 -15 -4 -15 -10 0 -5 -6 -10 -14 -10 -8 0 -26
-15 -40 -32 -14 -18 -32 -40 -40 -50 -8 -9 -11 -19 -8 -23 4 -3 -1 -3 -9 0 -9
3 -23 -3 -35 -16 -12 -14 -14 -20 -4 -15 8 5 3 -3 -12 -16 -16 -14 -28 -30
-28 -37 0 -6 -5 -11 -11 -11 -5 0 -7 5 -4 10 10 16 -1 11 -16 -7 -10 -11 -10
-14 -1 -9 6 4 12 2 12 -3 0 -6 -7 -11 -15 -11 -8 0 -15 -4 -15 -10 0 -5 -6
-10 -14 -10 -8 0 -26 -15 -40 -32 -14 -18 -32 -40 -40 -50 -8 -9 -11 -19 -8
-23 4 -3 -1 -3 -9 0 -9 3 -23 -3 -35 -16 -12 -14 -14 -20 -4 -15 8 5 3 -3 -12
-16 -16 -14 -28 -30 -28 -37 0 -6 -5 -11 -11 -11 -5 0 -7 6 -3 13 5 8 2 8 -9
-2 -18 -15 -23 -26 -7 -16 5 3 10 1 10 -4 0 -6 -7 -11 -15 -11 -8 0 -15 -4
-15 -10 0 -5 -7 -10 -15 -10 -9 0 -30 -21 -48 -46 -22 -31 -37 -44 -49 -40
-10 2 -16 0 -13 -4 3 -5 1 -11 -5 -15 -6 -4 -8 -11 -4 -16 3 -5 0 -8 -8 -7 -7
2 -12 -3 -10 -10 1 -8 -2 -11 -8 -7 -5 3 -10 -1 -10 -9 0 -9 -4 -16 -10 -16
-5 0 -10 -7 -10 -15 0 -8 -5 -15 -11 -15 -5 0 -7 6 -3 13 5 8 2 8 -9 -2 -18
-15 -23 -26 -7 -16 6 3 10 1 10 -4 0 -6 -5 -11 -10 -11 -6 0 -23 -13 -38 -28
-23 -24 -24 -24 -7 -3 l20 26 -23 -19 c-12 -11 -32 -35 -44 -54 -15 -24 -26
-32 -39 -29 -11 3 -17 1 -14 -3 3 -5 1 -11 -5 -15 -6 -4 -8 -11 -4 -16 3 -5 0
-8 -8 -7 -7 2 -12 -3 -10 -10 1 -8 -2 -11 -8 -7 -5 3 -10 -1 -10 -9 0 -9 -4
-16 -10 -16 -5 0 -10 -7 -10 -15 0 -8 -5 -15 -11 -15 -5 0 -7 6 -3 12 5 9 2 9
-9 -1 -18 -15 -23 -26 -7 -16 6 3 10 1 10 -4 0 -6 -7 -11 -15 -11 -8 0 -15 -4
-15 -10 0 -5 -7 -10 -15 -10 -9 0 -30 -20 -47 -45 -18 -25 -36 -45 -41 -45 -4
0 -5 -4 -2 -10 3 -5 0 -7 -8 -5 -7 3 -22 -4 -33 -16 -11 -14 -13 -19 -4 -14 8
5 4 -3 -10 -17 l-24 -26 -36 32 c-19 17 -37 36 -40 41 -2 6 -20 24 -40 40 -19
17 -80 76 -135 130 l-100 100 42 44 c26 27 46 40 54 36 7 -5 10 -4 6 1 -3 6
10 28 29 49 20 22 33 33 29 25 -4 -8 0 -6 9 4 8 10 13 23 10 28 -3 5 -2 7 3 6
4 -2 38 28 75 65 42 42 72 66 79 61 8 -4 9 -3 5 4 -9 14 103 124 117 115 6 -4
8 0 4 10 -4 10 3 23 21 37 15 12 21 18 13 14 -9 -4 -12 -3 -7 4 4 6 14 8 24 5
9 -3 14 -3 10 2 -10 10 19 38 32 30 6 -4 7 1 3 11 -5 14 -3 16 11 11 10 -4 15
-3 11 3 -8 13 105 121 118 113 6 -4 8 0 4 10 -4 12 5 24 31 42 20 14 33 25 29
25 -5 0 -1 7 7 16 9 8 20 13 26 9 6 -4 7 1 3 11 -5 14 -3 16 11 11 9 -4 15 -3
12 1 -2 4 11 26 30 47 20 22 33 34 29 28 -13 -27 3 -11 35 33 25 35 35 43 42
32 7 -9 8 -8 4 6 -4 11 -1 23 6 28 10 8 10 11 1 15 -7 2 -13 10 -13 18 0 7 -8
19 -17 26 -17 13 -17 13 -3 -6 11 -15 7 -14 -13 4 -15 14 -27 31 -27 38 0 8
-4 11 -10 8 -6 -3 -7 1 -4 9 4 11 0 16 -10 16 -9 0 -16 5 -16 10 0 6 -6 10
-14 10 -8 0 -18 5 -22 12 -5 7 -3 8 7 3 12 -8 12 -6 1 8 -8 9 -19 15 -25 14
-7 -1 -11 3 -10 10 1 6 -5 17 -14 25 -14 11 -16 11 -8 -2 8 -13 6 -13 -8 -1
-9 7 -15 17 -12 21 2 4 -7 17 -20 30 -13 13 -22 26 -20 30 3 4 -5 7 -17 6 -14
-1 -27 8 -34 21 -6 13 -14 20 -18 16 -4 -4 -4 0 0 10 4 12 1 17 -10 17 -9 0
-16 5 -16 10 0 6 -6 10 -14 10 -8 0 -18 5 -22 12 -5 7 -3 8 7 3 12 -8 12 -6 1
8 -8 9 -19 15 -25 14 -6 -1 -11 3 -12 10 0 7 -6 18 -14 25 -12 11 -13 10 -6
-2 8 -13 6 -13 -8 -1 -9 7 -15 17 -12 21 2 4 -7 17 -20 30 -13 13 -22 26 -20
30 3 4 -5 7 -17 6 -14 -1 -27 8 -34 21 -6 13 -13 20 -16 17 -3 -3 -9 0 -14 7
-4 8 -3 10 4 5 7 -4 12 -2 12 3 0 6 -7 11 -15 11 -8 0 -15 5 -15 10 0 6 -6 10
-14 10 -8 0 -18 5 -22 12 -5 7 -3 8 7 3 12 -8 12 -6 1 8 -8 9 -19 15 -25 14
-6 -1 -12 4 -13 11 -1 6 -2 17 -3 22 0 6 -6 10 -12 10 -5 0 -7 -6 -3 -12 5 -9
3 -9 -9 1 -9 7 -15 17 -12 21 5 9 -64 76 -73 71 -4 -2 -12 6 -18 18 -6 11 -14
18 -18 14 -4 -4 -4 0 0 10 4 12 1 17 -10 17 -9 0 -16 5 -16 10 0 6 -6 10 -14
10 -8 0 -18 5 -22 12 -5 7 -2 8 7 3 12 -7 12 -6 1 6 -7 8 -18 14 -25 14 -7 0
-12 5 -12 12 0 7 -6 18 -14 25 -12 11 -13 10 -7 -2 4 -8 1 -6 -8 4 -8 10 -13
23 -10 28 3 5 2 8 -3 7 -29 -5 -32 3 -12 39 29 52 40 64 54 58 7 -2 18 7 24
20 7 15 16 22 23 18 8 -5 9 -2 5 10 -4 10 -3 15 3 11 6 -3 10 2 10 12 0 15 2
16 10 3 9 -13 14 -7 11 13 0 4 4 7 9 7 6 0 10 5 10 12 0 15 30 48 44 48 6 0 0
-9 -14 -20 -14 -10 -23 -21 -20 -23 3 -2 19 9 35 25 17 17 24 27 18 24 -7 -4
-13 -2 -13 3 0 6 6 11 14 11 8 0 24 16 35 36 13 22 27 34 35 31 8 -3 17 2 21
11 6 15 8 14 16 -5 4 -13 11 -23 13 -23z m-354 -290 c0 -5 -5 -10 -11 -10 -5
0 -7 5 -4 10 3 6 8 10 11 10 2 0 4 -4 4 -10z m1466 -1215 c-8 -8 -18 -15 -22
-15 -3 0 -1 7 6 15 7 8 17 15 22 15 5 0 3 -7 -6 -15z m-240 -240 c-8 -8 -18
-15 -22 -15 -3 0 -1 7 6 15 7 8 17 15 22 15 5 0 3 -7 -6 -15z m-227 -228 c-2
-1 -13 -9 -24 -17 -19 -14 -19 -14 -6 3 7 9 18 17 24 17 6 0 8 -1 6 -3z m-480
-480 c-2 -1 -13 -9 -24 -17 -19 -14 -19 -14 -6 3 7 9 18 17 24 17 6 0 8 -1 6
-3z"/>
<path d="M216 2555 c-9 -26 -7 -32 5 -12 6 10 9 21 6 23 -2 3 -7 -2 -11 -11z"/>
<path d="M296 2201 c-4 -5 -2 -12 3 -15 5 -4 12 -2 15 3 4 5 2 12 -3 15 -5 4
-12 2 -15 -3z"/>
<path d="M536 1961 c-4 -5 -2 -12 3 -15 5 -4 12 -2 15 3 4 5 2 12 -3 15 -5 4
-12 2 -15 -3z"/>
<path d="M776 1721 c-4 -5 -2 -12 3 -15 5 -4 12 -2 15 3 4 5 2 12 -3 15 -5 4
-12 2 -15 -3z"/>
<path d="M1015 1479 c-4 -6 -5 -12 -2 -15 2 -3 7 2 10 11 7 17 1 20 -8 4z"/>
<path d="M1617 1389 c7 -7 15 -10 18 -7 3 3 -2 9 -12 12 -14 6 -15 5 -6 -5z"/>
<path d="M1553 1323 c4 -6 -1 -17 -10 -24 -15 -12 -16 -12 -9 6 6 16 5 18 -5
8 -9 -9 -10 -16 -3 -23 7 -7 16 -4 28 9 13 14 14 21 5 27 -7 4 -10 3 -6 -3z"/>
<path d="M1447 1233 c3 -7 6 -13 8 -13 2 0 5 6 8 13 3 8 -1 14 -8 14 -7 0 -11
-6 -8 -14z"/>
<path d="M1372 1154 c10 -10 20 -16 22 -13 3 3 -5 11 -17 18 -21 13 -21 12 -5
-5z"/>
<path d="M1313 1083 c4 -6 -1 -17 -10 -24 -15 -12 -16 -12 -9 6 6 16 5 18 -5
8 -9 -9 -10 -16 -3 -23 7 -7 16 -4 28 9 13 14 14 21 5 27 -7 4 -10 3 -6 -3z"/>
<path d="M1207 993 c3 -7 6 -13 8 -13 2 0 5 6 8 13 3 8 -1 14 -8 14 -7 0 -11
-6 -8 -14z"/>
<path d="M1132 914 c10 -10 20 -16 22 -13 3 3 -5 11 -17 18 -21 13 -21 12 -5
-5z"/>
<path d="M1073 843 c4 -6 -1 -17 -10 -24 -15 -12 -16 -12 -9 6 6 16 5 18 -5 8
-9 -9 -10 -16 -3 -23 7 -7 16 -4 28 9 13 14 14 21 5 27 -7 4 -10 3 -6 -3z"/>
<path d="M966 758 c3 -5 10 -6 15 -3 13 9 11 12 -6 12 -8 0 -12 -4 -9 -9z"/>
<path d="M900 670 c0 -5 5 -10 11 -10 5 0 7 5 4 10 -3 6 -8 10 -11 10 -2 0 -4
-4 -4 -10z"/>
<path d="M815 600 c-4 -6 1 -7 12 -3 16 6 16 5 4 -10 -7 -9 -18 -14 -24 -10
-6 4 -7 1 -3 -6 6 -9 13 -8 27 5 10 9 16 21 13 25 -7 12 -21 11 -29 -1z"/>
<path d="M727 513 c3 -7 6 -13 8 -13 2 0 5 6 8 13 3 8 -1 14 -8 14 -7 0 -11
-6 -8 -14z"/>
<path d="M660 430 c0 -5 5 -10 11 -10 5 0 7 5 4 10 -3 6 -8 10 -11 10 -2 0 -4
-4 -4 -10z"/>
<path d="M593 363 c4 -6 -1 -17 -10 -24 -15 -12 -16 -12 -9 6 6 16 5 18 -5 8
-9 -9 -10 -16 -3 -23 7 -7 16 -4 28 9 13 14 14 21 5 27 -7 4 -10 3 -6 -3z"/>
<path d="M486 278 c3 -5 10 -6 15 -3 13 9 11 12 -6 12 -8 0 -12 -4 -9 -9z"/>
<path d="M412 194 c10 -10 20 -16 22 -13 3 3 -5 11 -17 18 -21 13 -21 12 -5
-5z"/>
<path d="M1605 2550 l-190 -190 493 -493 c270 -270 492 -497 492 -502 0 -6
-219 -229 -488 -496 l-487 -486 186 -183 c102 -101 190 -185 195 -187 5 -2
314 302 687 675 l677 677 -688 688 -687 687 -190 -190z m203 154 c-4 -3 11
-21 33 -41 21 -19 36 -40 32 -46 -3 -5 -2 -7 4 -4 12 8 217 -199 209 -211 -3
-6 2 -9 12 -8 10 0 16 -5 14 -14 -2 -8 0 -11 4 -7 9 9 134 -112 134 -130 0 -7
4 -12 8 -11 13 5 102 -84 95 -95 -3 -6 -2 -7 4 -4 12 8 245 -227 235 -238 -4
-4 -2 -5 4 -2 13 7 247 -227 236 -238 -4 -4 -2 -5 4 -2 11 7 247 -226 239
-236 -3 -4 -2 -5 2 -2 9 7 43 -26 43 -42 0 -16 -40 -72 -40 -57 0 5 -5 1 -11
-10 -9 -15 -13 -16 -21 -5 -8 11 -8 10 -4 -4 6 -20 -40 -71 -56 -61 -4 3 -8 2
-7 -3 3 -20 -2 -27 -12 -13 -8 12 -9 11 -4 -6 4 -17 -1 -25 -27 -37 -18 -9
-27 -17 -19 -17 11 0 9 -4 -4 -14 -11 -8 -24 -12 -29 -9 -5 4 -6 1 -2 -5 3 -6
-5 -22 -19 -36 -14 -14 -25 -22 -25 -18 0 4 -5 -1 -11 -12 -9 -15 -13 -16 -21
-5 -8 11 -8 10 -4 -4 6 -20 -40 -71 -56 -61 -4 3 -8 2 -7 -3 3 -20 -2 -27 -12
-13 -8 12 -9 11 -4 -6 4 -17 -1 -25 -27 -37 -18 -9 -27 -17 -19 -17 11 0 9 -4
-4 -14 -11 -8 -24 -12 -29 -9 -5 4 -6 1 -2 -5 3 -6 -5 -22 -19 -36 -14 -14
-25 -22 -25 -18 0 4 -5 -1 -11 -12 -9 -15 -13 -16 -21 -5 -8 11 -8 10 -4 -4 6
-20 -40 -71 -56 -61 -4 3 -8 2 -7 -3 3 -20 -2 -27 -12 -13 -8 12 -9 11 -4 -6
4 -17 -1 -25 -27 -37 -18 -9 -27 -17 -19 -17 11 0 9 -4 -4 -14 -11 -8 -24 -12
-29 -9 -5 4 -6 1 -2 -5 3 -6 -5 -22 -19 -36 -14 -14 -25 -22 -25 -18 0 4 -5
-1 -11 -12 -9 -15 -13 -16 -21 -5 -8 11 -8 10 -4 -4 6 -20 -40 -71 -56 -61 -4
3 -8 2 -7 -3 3 -20 -2 -27 -12 -13 -8 12 -9 11 -4 -6 4 -17 -1 -25 -27 -37
-18 -9 -27 -17 -19 -17 11 0 9 -4 -4 -14 -11 -8 -24 -12 -29 -9 -5 4 -6 1 -2
-5 3 -6 -5 -22 -19 -36 -14 -14 -25 -22 -25 -18 0 4 -5 -1 -11 -12 -9 -15 -13
-16 -21 -5 -8 11 -8 10 -4 -4 6 -20 -40 -71 -56 -61 -4 3 -8 2 -7 -3 3 -20 -2
-27 -12 -13 -8 12 -9 11 -4 -6 4 -17 -1 -25 -27 -37 -18 -9 -27 -17 -19 -17
11 0 9 -4 -4 -14 -11 -8 -24 -12 -29 -9 -5 4 -6 1 -2 -5 3 -6 -5 -22 -19 -36
-14 -14 -25 -22 -25 -18 0 4 -5 -1 -11 -12 -9 -15 -13 -16 -21 -5 -7 11 -8 10
-4 -4 4 -12 -2 -25 -16 -37 -22 -17 -23 -17 -55 9 -30 24 -48 62 -21 45 7 -5
8 -3 3 5 -4 8 -11 9 -17 3 -12 -12 -66 42 -64 65 0 10 -5 17 -12 15 -18 -4
-69 41 -64 56 2 8 -2 10 -15 5 -16 -6 -16 -5 -4 10 12 15 12 17 -1 12 -9 -4
-25 5 -39 22 -13 16 -27 28 -32 28 -4 0 -14 12 -21 27 -13 24 -12 28 3 42 10
9 20 13 24 10 4 -4 5 3 2 14 -2 11 4 27 13 34 12 10 14 10 8 0 -4 -6 -2 -12 3
-12 6 0 12 5 12 10 1 6 2 16 3 23 1 6 7 11 13 10 6 -1 17 5 25 14 11 14 11 16
-2 8 -13 -8 -13 -6 -1 8 7 9 17 14 22 11 5 -3 9 0 9 5 0 6 7 11 16 11 11 0 14
5 10 17 -4 10 -4 14 0 10 4 -4 12 3 18 14 6 12 14 20 18 18 9 -5 78 62 73 71
-3 4 3 14 12 21 12 10 14 10 9 2 -4 -7 -2 -13 3 -13 6 0 12 5 12 10 1 6 2 16
3 23 0 6 6 12 13 12 7 0 18 6 25 14 11 12 10 13 -2 6 -13 -8 -13 -6 -1 8 7 9
17 14 22 11 5 -3 9 0 9 5 0 6 7 11 16 11 11 0 14 5 10 17 -4 10 -4 14 0 10 4
-4 12 3 18 16 7 13 20 22 34 21 12 -1 20 2 17 6 -2 4 7 17 20 30 13 13 22 26
20 30 -3 4 3 14 12 21 14 12 16 12 8 -1 -7 -12 -6 -13 6 -2 8 7 14 18 14 25 0
7 5 12 12 12 7 0 18 6 25 14 11 12 11 13 -1 6 -9 -5 -12 -4 -7 3 4 7 14 12 22
12 8 0 14 5 14 10 0 6 7 10 16 10 11 0 14 5 10 17 -4 10 -4 14 0 10 4 -4 12 3
18 16 7 13 20 22 34 21 12 -1 20 2 17 6 -2 4 7 17 20 30 13 13 22 26 20 30 -3
4 3 14 12 21 14 12 16 12 8 -1 -7 -12 -6 -13 6 -2 8 7 14 18 14 25 0 7 5 12
12 12 7 0 18 6 25 14 11 12 11 13 -1 6 -9 -5 -12 -4 -7 3 4 7 14 12 22 12 8 0
14 5 14 10 0 6 7 10 16 10 10 0 14 5 10 16 -3 8 -2 12 4 9 6 -3 10 1 10 9 0 8
8 21 18 28 33 23 34 37 6 73 -14 19 -23 35 -19 35 4 0 2 6 -4 13 -6 8 -7 18
-3 22 4 5 2 5 -5 1 -6 -3 -14 -2 -18 4 -4 6 -10 8 -15 5 -14 -8 -64 40 -56 54
4 6 11 9 15 7 4 -3 8 1 8 9 0 13 -3 13 -17 0 -15 -14 -20 -12 -54 20 -21 19
-35 39 -31 44 3 5 1 12 -4 15 -5 4 -12 2 -16 -4 -4 -6 -11 -8 -16 -4 -5 3 -7
9 -4 14 3 4 -2 13 -10 20 -8 7 -13 16 -10 20 3 5 1 11 -5 15 -6 4 -7 11 -4 17
4 6 2 8 -4 4 -6 -3 -13 -2 -17 4 -4 6 -10 8 -15 5 -14 -8 -64 40 -56 54 4 6
11 9 15 7 4 -3 8 1 8 9 0 13 -3 13 -17 0 -15 -14 -20 -12 -54 20 -21 19 -35
39 -31 44 3 5 1 12 -4 15 -5 4 -12 2 -16 -4 -4 -6 -11 -8 -16 -4 -5 3 -7 9 -4
14 3 4 -2 13 -10 20 -8 7 -13 16 -10 20 3 5 1 11 -5 15 -6 4 -7 11 -4 17 4 6
2 8 -4 4 -6 -3 -13 -2 -17 4 -4 6 -10 8 -15 5 -14 -8 -64 40 -56 54 4 6 11 9
15 7 4 -3 8 1 8 9 0 13 -3 13 -17 0 -15 -14 -20 -12 -54 20 -21 19 -35 39 -31
44 3 5 1 12 -4 15 -5 4 -12 2 -16 -4 -4 -6 -11 -8 -16 -4 -5 3 -7 9 -4 14 3 4
-2 13 -10 20 -8 7 -13 16 -10 20 3 5 1 11 -5 15 -6 4 -7 11 -4 17 4 6 2 8 -4
4 -6 -3 -13 -2 -17 4 -4 6 -10 8 -15 5 -14 -8 -64 40 -56 54 4 6 11 9 15 7 4
-3 8 1 8 9 0 13 -3 13 -17 0 -15 -14 -20 -12 -54 20 -21 19 -35 39 -31 44 3 5
1 12 -4 15 -5 4 -12 2 -16 -4 -4 -6 -11 -8 -16 -4 -6 4 -4 13 7 25 9 10 21 16
25 13 5 -3 9 0 9 6 0 13 79 90 93 90 4 0 6 -4 2 -9 -3 -5 -1 -12 4 -16 6 -3 8
5 5 19 -3 18 5 34 28 58 17 18 25 24 17 13 -13 -19 -13 -19 5 -5 11 8 22 15
25 15 3 0 5 6 4 13 -1 15 38 58 50 55 4 -2 7 2 7 8 0 10 68 79 78 79 3 0 3 -3
0 -6z m-153 -542 c-6 -7 -35 18 -35 31 0 5 9 2 20 -8 11 -10 18 -20 15 -23z
m240 -240 c-6 -7 -35 18 -35 31 0 5 9 2 20 -8 11 -10 18 -20 15 -23z m240
-240 c-6 -7 -35 18 -35 31 0 5 9 2 20 -8 11 -10 18 -20 15 -23z m240 -240 c-6
-7 -35 18 -35 31 0 5 9 2 20 -8 11 -10 18 -20 15 -23z"/>
<path d="M1927 2547 c-3 -8 1 -14 8 -14 7 0 11 6 8 14 -3 7 -6 13 -8 13 -2 0
-5 -6 -8 -13z"/>
<path d="M2166 2302 c-3 -5 1 -9 9 -9 8 0 12 4 9 9 -3 4 -7 8 -9 8 -2 0 -6 -4
-9 -8z"/>
<path d="M2406 2062 c-3 -5 1 -9 9 -9 8 0 12 4 9 9 -3 4 -7 8 -9 8 -2 0 -6 -4
-9 -8z"/>
<path d="M2647 1827 c-3 -8 1 -14 8 -14 7 0 11 6 8 14 -3 7 -6 13 -8 13 -2 0
-5 -6 -8 -13z"/>
<path d="M2886 1582 c-3 -5 1 -9 9 -9 8 0 12 4 9 9 -3 4 -7 8 -9 8 -2 0 -6 -4
-9 -8z"/>
<path d="M2223 1105 c0 -8 4 -12 9 -9 5 3 6 10 3 15 -9 13 -12 11 -12 -6z"/>
<path d="M1976 871 c-4 -5 -2 -12 3 -15 5 -4 12 -2 15 3 4 5 2 12 -3 15 -5 4
-12 2 -15 -3z"/>
<path d="M1743 625 c0 -8 4 -12 9 -9 5 3 6 10 3 15 -9 13 -12 11 -12 -6z"/>
<path d="M1503 380 c-1 -11 2 -22 6 -24 4 -3 7 4 6 14 -2 27 -10 33 -12 10z"/>
<path d="M4420 2251 c0 -6 4 -13 10 -16 6 -3 7 1 4 9 -7 18 -14 21 -14 7z"/>
<path d="M4660 2011 c0 -6 4 -13 10 -16 6 -3 7 1 4 9 -7 18 -14 21 -14 7z"/>
<path d="M4900 1771 c0 -6 4 -13 10 -16 6 -3 7 1 4 9 -7 18 -14 21 -14 7z"/>
<path d="M5140 1531 c0 -6 4 -13 10 -16 6 -3 7 1 4 9 -7 18 -14 21 -14 7z"/>
<path d="M1736 1352 c-3 -5 1 -9 9 -9 8 0 12 4 9 9 -3 4 -7 8 -9 8 -2 0 -6 -4
-9 -8z"/>
<path d="M1653 1275 c0 -8 4 -12 9 -9 5 3 6 10 3 15 -9 13 -12 11 -12 -6z"/>
<path d="M1496 1112 c-3 -5 1 -9 9 -9 8 0 12 4 9 9 -3 4 -7 8 -9 8 -2 0 -6 -4
-9 -8z"/>
<path d="M1413 1035 c0 -8 4 -12 9 -9 5 3 6 10 3 15 -9 13 -12 11 -12 -6z"/>
</g>
</svg>
